<?xml version="1.0" encoding="UTF-8" standalone="no"?>
<!-- Created with Inkscape (http://www.inkscape.org/) -->

<svg
   xmlns:dc="http://purl.org/dc/elements/1.1/"
   xmlns:cc="http://creativecommons.org/ns#"
   xmlns:rdf="http://www.w3.org/1999/02/22-rdf-syntax-ns#"
   xmlns:svg="http://www.w3.org/2000/svg"
   xmlns="http://www.w3.org/2000/svg"
   xmlns:xlink="http://www.w3.org/1999/xlink"
   xmlns:sodipodi="http://sodipodi.sourceforge.net/DTD/sodipodi-0.dtd"
   xmlns:inkscape="http://www.inkscape.org/namespaces/inkscape"
   width="1300.4301"
   height="717.91998"
   id="svg2"
   sodipodi:version="0.32"
   inkscape:version="0.48.0 r9654"
   version="1.0"
   sodipodi:docname="Birdwing.svg"
   inkscape:output_extension="org.inkscape.output.svg.inkscape">
  <defs
     id="defs4">
    <linearGradient
       inkscape:collect="always"
       id="linearGradient2872">
      <stop
         style="stop-color:#ccc;stop-opacity:1;"
         offset="0"
         id="stop2874" />
      <stop
         style="stop-color:#ccc;stop-opacity:0;"
         offset="1"
         id="stop2876" />
    </linearGradient>
    <linearGradient
       inkscape:collect="always"
       id="linearGradient2864">
      <stop
         style="stop-color:#ccc;stop-opacity:1;"
         offset="0"
         id="stop2866" />
      <stop
         style="stop-color:#ccc;stop-opacity:0;"
         offset="1"
         id="stop2868" />
    </linearGradient>
    <linearGradient
       inkscape:collect="always"
       xlink:href="#linearGradient2864"
       id="linearGradient2340"
       gradientUnits="userSpaceOnUse"
       gradientTransform="matrix(0.95915,0,0,0.937164,17.79749,49.4536)"
       x1="603.37"
       y1="695.22729"
       x2="590.2124"
       y2="704.62555" />
    <linearGradient
       inkscape:collect="always"
       xlink:href="#linearGradient2872"
       id="linearGradient2348"
       gradientUnits="userSpaceOnUse"
       gradientTransform="matrix(0.95915,0,0,0.937164,17.79749,49.4536)"
       x1="742.46466"
       y1="642.59686"
       x2="830.80853"
       y2="725.30182" />
    <linearGradient
       inkscape:collect="always"
       xlink:href="#linearGradient2864"
       id="linearGradient3165"
       gradientUnits="userSpaceOnUse"
       gradientTransform="matrix(0.95915,0,0,0.937164,17.79749,49.4536)"
       x1="603.37"
       y1="695.22729"
       x2="590.2124"
       y2="704.62555" />
    <linearGradient
       inkscape:collect="always"
       xlink:href="#linearGradient2872"
       id="linearGradient3173"
       gradientUnits="userSpaceOnUse"
       gradientTransform="matrix(0.95915,0,0,0.937164,17.79749,49.4536)"
       x1="742.46466"
       y1="642.59686"
       x2="830.80853"
       y2="725.30182" />
  </defs>
  <sodipodi:namedview
     id="base"
     pagecolor="#ffffff"
     bordercolor="#666666"
     borderopacity="1.0"
     gridtolerance="10000"
     guidetolerance="10"
     objecttolerance="10"
     inkscape:pageopacity="0.0"
     inkscape:pageshadow="2"
     inkscape:zoom="0.83677929"
     inkscape:cx="1038.3393"
     inkscape:cy="307.28873"
     inkscape:document-units="px"
     inkscape:current-layer="layer1"
     inkscape:window-width="1280"
     inkscape:window-height="744"
     inkscape:window-x="-4"
     inkscape:window-y="-4"
     width="1300.43px"
     height="717.92px"
     showgrid="false"
     inkscape:window-maximized="1" />
  <metadata
     id="metadata7">
    <rdf:RDF>
      <cc:Work
         rdf:about="">
        <dc:format>image/svg+xml</dc:format>
        <dc:type
           rdf:resource="http://purl.org/dc/dcmitype/StillImage" />
      </cc:Work>
    </rdf:RDF>
  </metadata>
  <g
     inkscape:label="Layer 1"
     inkscape:groupmode="layer"
     id="layer1"
     transform="translate(162.4709,-368.2293)">
    <path
       sodipodi:nodetypes="ccsssccccccccccccccccccccccccccccccc"
       inkscape:connector-curvature="0"
       style="fill:url(#linearGradient3173);fill-opacity:1;fill-rule:evenodd;stroke:#000000;stroke-width:1.30000067;stroke-linecap:butt;stroke-linejoin:miter;stroke-miterlimit:4;stroke-opacity:1;stroke-dasharray:none"
       d="m 829.22296,601.59726 -11.47342,-3.7368 c 0,0 -6.17559,-11.93389 -11.47341,-11.21043 -7.13343,0.97412 -8.05893,12.04156 -10.83601,18.68404 -2.49017,5.95621 -3.00815,12.57629 -5.09929,18.68403 -2.69374,7.86779 -9.56118,23.04363 -9.56118,23.04363 l -30.59578,44.84167 -26.13389,34.87686 -13.38566,17.43843 -3.82446,1.8684 -3.18707,-3.73681 -1.91223,-1.8684 -7.64895,9.34201 0,9.34202 1.27483,8.09641 3.82447,4.35962 5.0993,0 4.46188,0.6228 2.54965,4.3596 15.29788,-16.19283 9.56119,-14.94722 27.40871,-36.74526 19.12237,-29.89445 12.74823,-18.68403 10.83601,-12.45601 10.19858,-4.35962 8.28636,1.24561 5.73671,1.2456 6.37412,-2.49121 0.63741,-6.228 0.63742,-6.85081 3.18705,-3.73681 1.91224,-9.34202 -1.27483,-6.22801 -5.09929,-6.85081 z"
       id="path1933" />
    <path
       inkscape:connector-curvature="0"
       style="fill:none;stroke:#000000;stroke-width:1.0000006px;stroke-linecap:butt;stroke-linejoin:miter;stroke-opacity:1"
       d="m 811.37542,622.14969 3.82448,-7.47361 6.37411,-2.4912 7.01153,2.4912 3.82448,3.7368 1.27482,3.73681 -2.54964,-7.47361 -0.63742,-6.228 -1.27482,-5.60522"
       id="path2822" />
    <path
       inkscape:connector-curvature="0"
       style="fill:#cccccc;fill-rule:evenodd;stroke:#000000;stroke-width:1.0000006px;stroke-linecap:butt;stroke-linejoin:miter;stroke-opacity:1"
       d="m 858.5439,583.53603 1.27483,-8.09641 -2.54964,-3.11401 -3.82448,-1.2456 -8.28635,-1.2456 -3.82448,4.35961 -3.82447,9.34201 -2.54965,3.114 -3.82446,6.22801 2.54964,6.85082 3.18706,3.114 4.46188,7.47361 7.01154,0 5.7367,-6.22801 0,-6.85081 3.18707,-4.35961 1.27481,-9.34201 z"
       id="path2824" />
    <path
       inkscape:connector-curvature="0"
       style="fill:#e6e6e6;fill-rule:evenodd;stroke:#000000;stroke-width:1.0000006px;stroke-linecap:butt;stroke-linejoin:miter;stroke-opacity:1"
       d="m 859.81873,590.38684 5.73671,0 -0.63741,4.35961 1.91223,-2.4912 5.73671,3.114 2.54965,4.35961 0,6.85081 -2.54965,2.4912 20.39718,18.68403 18.48495,21.79804 14.66048,12.45602 3.18706,8.71921 -1.91224,-6.85081 12.11083,11.21041 3.18706,6.85082 -6.37412,2.4912 -7.64894,6.85081 -7.64895,11.21042 -1.27482,6.22801 -8.28636,0.6228 -4.46188,-2.4912 -7.64894,3.7368 2.54964,-8.09641 5.0993,-14.94722 0,-13.70162 -14.02307,-24.28924 -23.58424,-20.55244 -9.56118,-6.228 -0.63741,-8.09642 1.91224,-7.47361 3.18706,-6.85081 1.27482,-5.60521 -5.73671,-4.35961 z"
       id="path2826" />
    <path
       inkscape:connector-curvature="0"
       style="fill:#e6e6e6;fill-rule:evenodd;stroke:#000000;stroke-width:1.0000006px;stroke-linecap:butt;stroke-linejoin:miter;stroke-opacity:1"
       d="m 913.36134,683.80699 0,-8.71922 2.54965,-4.3596 5.09929,2.49121 6.37412,7.47361 -1.91224,8.09641 -3.82446,4.3596 -1.27483,7.47362"
       id="path2828" />
    <path
       inkscape:connector-curvature="0"
       style="fill:#e6e6e6;fill-rule:evenodd;stroke:#000000;stroke-width:1.0000006px;stroke-linecap:butt;stroke-linejoin:miter;stroke-opacity:1"
       d="m 864.28062,599.72886 -6.37412,12.45602 0.6374,23.04363 c 0,0 2.24185,30.3019 3.18707,45.46448 0.97018,15.56299 2.54965,46.71007 2.54965,46.71007 0,0 -0.57328,34.14173 1.27482,51.06968 0.48205,4.41544 2.59338,8.63736 2.54965,13.07882 -0.0795,8.06947 -2.66512,15.97246 -5.0993,23.66644 -1.97212,6.23352 -3.89122,12.71094 -7.64894,18.06123 -3.16166,4.50162 -12.11083,11.21042 -12.11083,11.21042 l -6.37412,0.6228 c 0,0 4.15682,-10.26939 5.73671,-15.57003 2.43402,-8.16632 4.08585,-16.55213 5.73671,-24.91203 1.26366,-6.39913 3.14426,-12.78427 3.18705,-19.30684 0.0372,-5.66915 -2.71855,-11.14887 -2.54964,-16.81562 0.15179,-5.09215 2.47275,-9.90315 3.18706,-14.94723 1.25486,-8.86113 1.76931,-17.83204 1.91223,-26.78044 0.17252,-10.8022 -1.27482,-32.38565 -1.27482,-32.38565 l -4.46188,-31.76285 -5.73671,-16.19283 -5.0993,-4.9824 1.27483,-7.47362 2.54964,-6.22801 3.82448,-6.22801 -1.27483,-11.21042 7.01153,-1.2456 3.18706,-2.4912 1.91224,-5.60522 -0.63741,-4.3596 3.18705,-2.4912 1.91224,-4.98241 4.46189,0 1.27483,3.7368 z"
       id="path2830"
       sodipodi:nodetypes="cccscssssccssssssccccccccccccccccc" />
    <path
       inkscape:connector-curvature="0"
       style="fill:url(#linearGradient3165);fill-opacity:1;fill-rule:evenodd;stroke:#000000;stroke-width:1.0000006px;stroke-linecap:butt;stroke-linejoin:miter;stroke-opacity:1"
       d="m 534.1012,611.56207 21.0346,26.78045 24.22166,30.51725 32.50801,33.63125 25.49648,20.55244 22.94683,16.81562 19.12236,9.34201 12.74824,1.86841 -0.63742,12.45602 3.82448,6.85081 7.64894,6.85081 -0.63741,3.11401 -5.09929,1.24559 -11.47342,-0.6228 -28.04613,-17.43842 -36.33248,-29.89445 -31.8706,-30.51725 -28.68354,-29.27164 -24.22166,-25.53484 -8.92377,-6.22802 -11.47342,-6.22801 1.91224,-13.07881 5.0993,-7.47362 6.37412,-3.114 4.46188,-0.62281 z"
       id="path2832" />
    <path
       inkscape:connector-curvature="0"
       style="fill:#808080;fill-rule:evenodd;stroke:#000000;stroke-width:1.0000006px;stroke-linecap:butt;stroke-linejoin:miter;stroke-opacity:1"
       d="m 691.54196,749.82389 -14.02306,-1.8684 -19.12236,-24.28924 -32.50801,-34.87685 -35.05766,-31.76285 -31.8706,-26.78044 -13.38565,-7.47361 -10.83601,-10.58762 -3.82446,-1.86841 1.27481,-11.21041 19.12237,12.45601 20.39718,19.92964 22.30942,21.17523 24.22166,20.55244 23.58424,21.79803 21.0346,21.17523 14.02306,14.32443 12.11083,8.09641 5.09929,3.7368 2.54965,2.49121 -5.0993,4.9824 z"
       id="path2834" />
    <path
       inkscape:connector-curvature="0"
       style="fill:none;stroke:#000000;stroke-width:1.0000006px;stroke-linecap:butt;stroke-linejoin:miter;stroke-opacity:1"
       d="m 530.91415,598.48326 -7.01154,-6.22801 -7.01153,7.47361 2.54965,11.21041 3.82447,2.49121 7.01154,-3.73681 0.63741,-11.21041 z"
       id="path2836" />
    <path
       inkscape:connector-curvature="0"
       style="fill:none;stroke:#000000;stroke-width:1.0000006px;stroke-linecap:butt;stroke-linejoin:miter;stroke-opacity:1"
       d="m 523.2652,591.00965 -2.54965,-2.49121 -5.7367,8.09641 1.27481,2.49121 7.01154,-8.09641 z"
       id="path2838" />
    <path
       inkscape:connector-curvature="0"
       style="fill:#e6e6e6;fill-opacity:1;fill-rule:evenodd;stroke:#000000;stroke-width:1px;stroke-linecap:butt;stroke-linejoin:miter;stroke-opacity:1"
       d="m 508.56678,636.90915 c 0,0 -8.69341,-14.8023 -15.03726,49.81093 -6.34384,64.61322 -13.39255,116.30379 -12.21777,172.92847 1.17479,56.62468 7.48524,52.12929 16.91692,53.57024 16.91692,2.58453 14.09743,-8.45846 20.67623,-64.84818 6.5788,-56.38972 7.04872,-96.33243 5.63897,-160.7107 -1.40974,-64.37827 -15.97709,-50.75076 -15.97709,-50.75076 z"
       id="path2929"
       sodipodi:nodetypes="csssssc" />
    <path
       inkscape:connector-curvature="0"
       style="fill:none;stroke:#000000;stroke-width:1.0000006px;stroke-linecap:butt;stroke-linejoin:miter;stroke-opacity:1"
       d="m 518.1659,613.43048 -12.74823,14.32442 11.47341,7.47361 c 0,0 0.18819,-7.60992 1.27482,-11.21041 0.94331,-3.12561 4.46189,-8.71922 4.46189,-8.71922 z"
       id="path2840"
       sodipodi:nodetypes="cccscc" />
    <path
       inkscape:connector-curvature="0"
       style="fill:#666666;fill-rule:evenodd;stroke:#000000;stroke-width:1.0000006px;stroke-linecap:butt;stroke-linejoin:miter;stroke-opacity:1"
       d="m 512.4292,582.29043 -17.84754,6.85081 -28.68354,0 c 0,0 -27.72742,0.6228 -41.43178,-1.2456 -13.70436,-1.8684 -9.40182,-6.07231 -13.38565,-6.22801 -3.98383,-0.1557 -2.54965,5.60521 -2.54965,5.60521 l 1.91224,3.114 1.91224,-2.4912 -1.27483,3.73681 3.82448,4.9824 3.18705,0 -6.37412,1.86841 1.27483,9.34201 6.37412,2.4912 0,4.98241 5.7367,-9.96481 15.9353,-1.24561 21.0346,0.6228 17.21012,0.62281 12.11083,3.7368 4.46189,0.6228 -2.54965,1.8684 1.91223,3.11401 5.73671,0.6228 4.46189,1.24561 5.09929,-7.47362 1.27483,-3.7368 -5.0993,0 -5.73671,-4.35962"
       id="path2842"
       sodipodi:nodetypes="cccsscccccccccccccccccccccccc" />
    <path
       inkscape:connector-curvature="0"
       style="fill:#b3b3b3;fill-rule:evenodd;stroke:#000000;stroke-width:1.0000006px;stroke-linecap:butt;stroke-linejoin:miter;stroke-opacity:1"
       d="m 433.39011,605.33407 3.82447,9.96481 13.38565,3.73681 21.0346,1.2456 20.39718,-3.11401 5.0993,-2.4912 7.01153,1.86841 1.91224,2.4912 -1.91224,1.8684 2.54965,5.60521 -5.0993,0.6228 -8.92377,-3.7368 -8.92377,6.22801 -23.58424,0 -15.9353,-3.73682 -13.38564,-5.6052 -8.28636,0 -3.82448,-3.7368 4.46189,-7.47362 10.19859,-3.7368 z"
       id="path2844" />
    <path
       inkscape:connector-curvature="0"
       style="fill:none;stroke:#000000;stroke-width:1.0000006px;stroke-linecap:butt;stroke-linejoin:miter;stroke-opacity:1"
       d="m 499.37854,586.19137 9.66352,-3.7368 -9.36111,-9.50615 c 0,0 8.28636,1.2456 11.47342,3.114 3.18706,1.8684 1.27483,4.35961 1.27483,4.35961 l -7.64895,5.6052 -5.40171,0.16414 z"
       id="path2846"
       sodipodi:nodetypes="cccsccc" />
    <path
       inkscape:connector-curvature="0"
       style="fill:none;stroke:#000000;stroke-width:1.0000006px;stroke-linecap:butt;stroke-linejoin:miter;stroke-opacity:1"
       d="m 500.31837,584.78163 c 0,0 -7.80342,-7.44883 -14.59531,-10.72925 -9.20839,-4.44755 -19.87118,-5.39211 -12.34809,-6.22801 0,0 9.42041,-0.9567 14.89772,0.6003 5.47732,1.557 10.77085,3.27814 10.77085,3.27814 l 9.99852,10.75176 -8.72369,2.32706 z"
       id="path2848"
       sodipodi:nodetypes="cscsccc" />
    <path
       inkscape:connector-curvature="0"
       style="fill:none;stroke:#000000;stroke-width:1.0000006px;stroke-linecap:butt;stroke-linejoin:miter;stroke-opacity:1"
       d="m 417.45481,616.36909 c -1.13817,2.08615 -3.01364,3.84331 -5.09929,4.98241 -3.25272,1.7765 -10.83601,2.4912 -10.83601,2.4912 l 12.11083,-13.70162 5.09929,0 c 0,0 -0.25992,4.36781 -1.27482,6.22801 z"
       id="path2850"
       sodipodi:nodetypes="sscccs" />
    <path
       inkscape:connector-curvature="0"
       style="fill:none;stroke:#000000;stroke-width:1.0000006px;stroke-linecap:butt;stroke-linejoin:miter;stroke-opacity:1"
       d="m 398.33245,620.28129 13.38565,-9.96482 0,-9.34202 2.54965,-4.3596 -5.0993,-6.22801 -3.82447,-6.228 -9.56118,3.114 -12.11083,1.2456 -11.47341,0 -1.91224,0"
       id="path2852" />
    <path
       inkscape:connector-curvature="0"
       style="fill:none;stroke:#000000;stroke-width:1.00000036px;stroke-linecap:butt;stroke-linejoin:miter;stroke-opacity:1"
       d="m 363.91221,586.25014 1.27481,6.54876 0,3.92925 -7.01153,2.61951 -2.54964,2.6195 5.09929,3.05609 9.56118,0 7.64895,0 9.56118,2.6195 5.7367,3.49269 10.83601,0.87316 7.64894,-6.54876 1.91224,-6.44158 0.63741,-4.90961 -0.63741,-3.49267 -5.0993,-4.80243 -3.05214,-1.96068 -10.19859,2.6195 -10.66851,0.10718 -11.13842,0.10717 -9.56117,-0.43658 z"
       id="path2854"
       sodipodi:nodetypes="ccccccccccccccccccccc" />
    <path
       inkscape:connector-curvature="0"
       style="fill:#ececec;fill-rule:evenodd;stroke:#000000;stroke-width:1.00000072px;stroke-linecap:butt;stroke-linejoin:miter;stroke-opacity:1"
       d="m 374.21939,591.54905 13.38565,0 8.92377,0.58483 5.09929,2.92414 4.46189,4.67861 -1.27483,2.92413 -1.27482,2.92413 -0.63742,6.43309 1.27483,-7.01791 -3.82447,-3.50897 -6.37413,-2.33931 -7.64894,0 -8.92377,3.50897 -1.27482,2.33931"
       id="path2856" />
    <path
       inkscape:connector-curvature="0"
       style="fill:#cccccc;fill-rule:evenodd;stroke:#000000;stroke-width:1px;stroke-linecap:butt;stroke-linejoin:miter;stroke-opacity:1"
       d="m 356.22813,599.26925 -8.1736,-3.72081 -14.98491,-0.31006 -6.81133,-1.24027 -10.89812,-0.62014 14.98492,-2.7906 7.49246,0.9302 15.66605,0.31007 6.81133,1.55033 0,2.48054 -4.0868,-3.7208 -8.1736,0 -16.34718,-1.55034 23.15852,-1.24027 6.13019,-0.62014 4.0868,2.79061 2.04339,3.41074 -2.72452,1.8604 -8.1736,2.48054 z"
       id="path2858" />
    <path
       inkscape:connector-curvature="0"
       style="fill:none;stroke:#000000;stroke-width:1.0000006px;stroke-linecap:butt;stroke-linejoin:miter;stroke-opacity:1"
       d="m 522.60203,591.77965 -9.01436,-8.80773"
       id="path2860" />
    <path
       inkscape:connector-curvature="0"
       style="fill:#e6e6e6;fill-opacity:1;fill-rule:evenodd;stroke:#000000;stroke-width:1px;stroke-linecap:butt;stroke-linejoin:miter;stroke-opacity:1"
       d="m 673.97664,761.90637 c 0,0 -9.848,-0.25385 -12.21777,24.43554 -3.75269,39.09731 -1.12869,19.78465 1.87966,85.52442 2.58452,56.4782 6.49023,72.97284 25.37536,69.54732 13.98422,-2.53656 9.25972,-36.00738 6.5788,-82.70492 -3.82433,-66.6143 -2.54726,-42.15651 -5.63896,-66.72784 -3.56084,-28.29973 -15.97709,-30.07452 -15.97709,-30.07452 z"
       id="path2931"
       sodipodi:nodetypes="csssssc" />
    <path
       inkscape:connector-curvature="0"
       style="fill:none;stroke:#000000;stroke-width:3.4000001;stroke-linecap:butt;stroke-linejoin:miter;stroke-miterlimit:4;stroke-opacity:1;stroke-dasharray:none"
       d="m 529.81352,639.34142 -1.80286,257.1859 0,15.85393"
       id="path2880" />
    <path
       inkscape:connector-curvature="0"
       style="fill:none;stroke:#000000;stroke-width:3.4000001;stroke-linecap:butt;stroke-linejoin:miter;stroke-miterlimit:4;stroke-opacity:1;stroke-dasharray:none"
       d="m 547.84226,651.67226 3.60575,262.47053"
       id="path2882" />
    <path
       inkscape:connector-curvature="0"
       style="fill:none;stroke:#000000;stroke-width:3.4000001;stroke-linecap:butt;stroke-linejoin:miter;stroke-miterlimit:4;stroke-opacity:1;stroke-dasharray:none"
       d="m 567.67387,672.81082 9.01437,239.57043"
       id="path2884" />
    <path
       inkscape:connector-curvature="0"
       style="fill:none;stroke:#000000;stroke-width:3.4000001;stroke-linecap:butt;stroke-linejoin:miter;stroke-miterlimit:4;stroke-opacity:1;stroke-dasharray:none"
       d="m 594.71697,697.47249 12.62011,221.95495"
       id="path2886" />
    <path
       inkscape:connector-curvature="0"
       style="fill:none;stroke:#000000;stroke-width:3.4000001;stroke-linecap:butt;stroke-linejoin:miter;stroke-miterlimit:4;stroke-opacity:1;stroke-dasharray:none"
       d="M 619.95719,722.13415 634.3034,931.40394"
       id="path2888"
       sodipodi:nodetypes="cc" />
    <path
       inkscape:connector-curvature="0"
       style="fill:none;stroke:#000000;stroke-width:3.4000001;stroke-linecap:butt;stroke-linejoin:miter;stroke-miterlimit:4;stroke-opacity:1;stroke-dasharray:none"
       d="m 645.19743,743.27271 15.4396,195.17742"
       id="path2890"
       sodipodi:nodetypes="cc" />
    <path
       inkscape:connector-curvature="0"
       style="fill:none;stroke:#000000;stroke-width:1.0000006px;stroke-linecap:butt;stroke-linejoin:miter;stroke-opacity:1"
       d="m 670.43765,755.60354 16.14907,186.83707"
       id="path2892"
       sodipodi:nodetypes="cc" />
    <path
       inkscape:connector-curvature="0"
       style="fill:none;stroke:#000000;stroke-width:1.0000006px;stroke-linecap:butt;stroke-linejoin:miter;stroke-opacity:1"
       d="M 511.78479,634.05678 499.16468,905.33506"
       id="path2894" />
    <path
       inkscape:connector-curvature="0"
       style="fill:none;stroke:#000000;stroke-width:3.4000001;stroke-linecap:butt;stroke-linejoin:miter;stroke-miterlimit:4;stroke-opacity:1;stroke-dasharray:none"
       d="M 486.54457,625.24905 448.68422,889.48113"
       id="path2896" />
    <path
       inkscape:connector-curvature="0"
       style="fill:none;stroke:#000000;stroke-width:3.4000001;stroke-linecap:butt;stroke-linejoin:miter;stroke-miterlimit:4;stroke-opacity:1;stroke-dasharray:none"
       d="M 466.71296,623.4875 394.59802,893.00423"
       id="path2898" />
    <path
       inkscape:connector-curvature="0"
       style="fill:none;stroke:#000000;stroke-width:3.4000001;stroke-linecap:butt;stroke-linejoin:miter;stroke-miterlimit:4;stroke-opacity:1;stroke-dasharray:none"
       d="M 448.68422,623.36939 322.48309,891.24268"
       id="path2900"
       sodipodi:nodetypes="cc" />
    <path
       inkscape:connector-curvature="0"
       style="fill:none;stroke:#000000;stroke-width:3.4000001;stroke-linecap:butt;stroke-linejoin:miter;stroke-miterlimit:4;stroke-opacity:1;stroke-dasharray:none"
       d="M 433.00506,619.72819 223.32505,877.1503"
       id="path2902"
       sodipodi:nodetypes="cc" />
    <path
       inkscape:connector-curvature="0"
       style="fill:none;stroke:#000000;stroke-width:3.39999914;stroke-linecap:butt;stroke-linejoin:miter;stroke-miterlimit:4;stroke-opacity:1;stroke-dasharray:none"
       d="m 408.76982,609.63585 -280.99708,241.091"
       id="path2904"
       sodipodi:nodetypes="cc" />
    <path
       inkscape:connector-curvature="0"
       style="fill:none;stroke:#000000;stroke-width:2.20000052;stroke-linecap:butt;stroke-linejoin:miter;stroke-miterlimit:4;stroke-opacity:1;stroke-dasharray:none"
       d="M 398.0323,608.16275 51.270908,811.32715"
       id="path2906"
       sodipodi:nodetypes="cc" />
    <g
       id="g1972"
       transform="matrix(1.071108,1.210464e-4,-1.214938e-4,1.067163,7.3503623,-37.02268)">
      <path
         inkscape:connector-curvature="0"
         sodipodi:nodetypes="ccscsscccc"
         transform="translate(-162.4709,368.2293)"
         id="path2927"
         d="m 505.62783,237.66551 -218.04025,80.82527 c 0,0 -71.89689,23.73067 -108.0803,38.53297 -36.1834,14.8023 -36.65332,20.67623 -36.65332,20.67623 0,0 20.44128,9.8682 44.17195,10.33812 23.73068,0.46992 27.48999,0 58.26938,-10.33812 30.77939,-10.33811 64.84818,-31.01434 64.84818,-31.01434 l 87.40407,-46.99144 115.59892,-62.02869 -7.51863,0 z"
         style="fill:#e6e6e6;fill-opacity:1;fill-rule:evenodd;stroke:#000000;stroke-width:0.93533683px;stroke-linecap:butt;stroke-linejoin:miter;stroke-opacity:1" />
      <path
         inkscape:connector-curvature="0"
         id="path2908"
         d="M 353.13194,604.11049 -7.442737,746.7958"
         style="fill:none;stroke:#000000;stroke-width:0.93533736px;stroke-linecap:butt;stroke-linejoin:miter;stroke-opacity:1" />
    </g>
    <g
       id="g1980"
       transform="matrix(1.175704,0,0,1.071501,-43.695914,-44.113029)">
      <path
         inkscape:connector-curvature="0"
         sodipodi:nodetypes="ssczzsscs"
         transform="translate(-162.4709,368.2293)"
         id="path2923"
         d="m 450.4653,230.79489 c -78.91606,4.20201 -143.61123,11.09985 -236.18436,21.90788 -92.57313,10.80803 -109.02013,16.91691 -109.02013,16.91691 0,0 6.81377,8.45847 19.73641,12.21778 12.92264,3.75932 9.63324,4.22922 40.41263,3.75931 30.77939,-0.46992 33.59887,0.70487 82.70492,-5.63897 49.10605,-6.34384 47.46135,-8.69341 105.26082,-20.67623 57.79946,-11.98282 129.77644,-28.94014 129.77644,-28.94014 0,0 -21.80309,-0.12606 -32.68673,0.45346 z"
         style="fill:#e6e6e6;fill-rule:evenodd;stroke:#000000;stroke-width:0.89095289px;stroke-linecap:butt;stroke-linejoin:miter;stroke-opacity:1" />
      <path
         inkscape:connector-curvature="0"
         id="path2910"
         d="M 331.49745,597.0643 -47.105951,637.57988"
         style="fill:none;stroke:#000000;stroke-width:0.89095336px;stroke-linecap:butt;stroke-linejoin:miter;stroke-opacity:1" />
    </g>
    <g
       id="g1976"
       transform="matrix(1.138811,0,0,1.086198,-29.489043,-45.431539)">
      <path
         inkscape:connector-curvature="0"
         sodipodi:nodetypes="cscszsscc"
         transform="translate(-162.4709,368.2293)"
         id="path2925"
         d="m 487.77109,232.02654 c 0,0 -183.26659,39.70776 -274.89989,62.96852 -91.6333,23.26076 -88.3439,32.42409 -88.3439,32.42409 0,0 11.15583,6.41263 29.60461,8.92837 10.33812,1.40974 15.03726,5.16906 40.41263,1.87966 25.37537,-3.2894 26.55016,-3.99428 61.08886,-15.03726 60.44082,-19.32461 120.06311,-40.88255 180.44711,-62.96852 60.384,-22.08597 62.0287,-27.72495 62.0287,-27.72495 l -10.33812,-0.46991 z"
         style="fill:#e6e6e6;fill-opacity:1;fill-rule:evenodd;stroke:#000000;stroke-width:0.89912426px;stroke-linecap:butt;stroke-linejoin:miter;stroke-opacity:1" />
      <path
         inkscape:connector-curvature="0"
         id="path2912"
         d="M -29.077218,693.94939 347.72332,597.0643"
         style="fill:none;stroke:#000000;stroke-width:0.89912474px;stroke-linecap:butt;stroke-linejoin:miter;stroke-opacity:1" />
    </g>
    <path
       inkscape:connector-curvature="0"
       style="fill:none;stroke:#3263e7;stroke-width:5.40000343;stroke-linecap:butt;stroke-linejoin:miter;stroke-miterlimit:4;stroke-opacity:1;stroke-dasharray:none"
       d="m -135.44675,671.04928 c 0,0 0.40527,119.61691 124.398266,223.71649 212.435924,178.35273 463.338454,56.36952 463.338454,56.36952"
       id="path2914"
       sodipodi:nodetypes="csc" />
    <path
       inkscape:connector-curvature="0"
       style="fill:none;stroke:#3b6aee;stroke-width:5.30000353;stroke-linecap:butt;stroke-linejoin:miter;stroke-miterlimit:4;stroke-opacity:1;stroke-dasharray:none"
       d="M 481.13594,947.61219 C 481.13594,947.61219 545.06569,1012.6055 604.67116,1014.1966 708.38314,1016.965 777.67309,946.73531 777.67309,946.73531"
       id="path2916"
       sodipodi:nodetypes="csc" />
    <path
       inkscape:connector-curvature="0"
       style="fill:none;stroke:#000000;stroke-width:3.4000001;stroke-linecap:butt;stroke-linejoin:miter;stroke-miterlimit:4;stroke-opacity:1;stroke-dasharray:none"
       d="M 689.32651,777.69527 730.08192,938.00383"
       id="path2918"
       sodipodi:nodetypes="cc" />
    <path
       inkscape:connector-curvature="0"
       style="fill:none;stroke:#000000;stroke-width:3.4000001;stroke-linecap:butt;stroke-linejoin:miter;stroke-miterlimit:4;stroke-opacity:1;stroke-dasharray:none"
       d="M 697.23084,776.27219 770.86064,934.44673"
       id="path2920"
       sodipodi:nodetypes="cc" />
    <path
       inkscape:connector-curvature="0"
       style="fill:none;stroke:#000000;stroke-width:3.4000001;stroke-linecap:butt;stroke-linejoin:miter;stroke-miterlimit:4;stroke-opacity:1;stroke-dasharray:none"
       d="M 782.79337,776.18431 809.26981,928.76381"
       id="path2922"
       sodipodi:nodetypes="cc" />
    <path
       inkscape:connector-curvature="0"
       style="fill:none;stroke:#000000;stroke-width:3.4000001;stroke-linecap:butt;stroke-linejoin:miter;stroke-miterlimit:4;stroke-opacity:1;stroke-dasharray:none"
       d="M 805.62565,758.1806 838.11851,900.44689"
       id="path2924"
       sodipodi:nodetypes="cc" />
    <path
       inkscape:connector-curvature="0"
       style="fill:#ff0000;fill-rule:evenodd;stroke:#000000;stroke-width:1.0000006px;stroke-linecap:butt;stroke-linejoin:miter;stroke-opacity:1"
       d="m 897.5997,641.10297 -0.58361,-76.00801"
       id="path2926"
       sodipodi:nodetypes="cc" />
    <path
       inkscape:connector-curvature="0"
       sodipodi:nodetypes="cc"
       style="fill:#ff0000;fill-rule:evenodd;stroke:#101a0d;stroke-width:1.0000006px;stroke-linecap:butt;stroke-linejoin:miter;stroke-opacity:1"
       d="m 861.69579,724.57404 139.79481,73.42475"
       id="path2928" />
    <path
       inkscape:connector-curvature="0"
       style="fill:none;stroke:#000000;stroke-width:1.0000006px;stroke-linecap:butt;stroke-linejoin:miter;stroke-opacity:1"
       d="m 765.98994,507.22539 0,151.49305"
       id="path2930" />
    <path
       inkscape:connector-curvature="0"
       style="fill:none;stroke:#000000;stroke-width:1.0000006px;stroke-linecap:butt;stroke-linejoin:miter;stroke-opacity:1"
       d="m 643.39455,558.31025 1.80288,137.40069"
       id="path2932" />
    <path
       inkscape:connector-curvature="0"
       style="fill:none;stroke:#000000;stroke-width:1.0000006px;stroke-linecap:butt;stroke-linejoin:miter;stroke-opacity:1"
       d="M 556.85663,486.08683 555.05376,653.4338"
       id="path2934"
       sodipodi:nodetypes="cc" />
    <path
       inkscape:connector-curvature="0"
       style="fill:none;stroke:#000000;stroke-width:1.0000006px;stroke-linecap:butt;stroke-linejoin:miter;stroke-opacity:1"
       d="m 524.40491,600.58739 -3.60575,-156.7777"
       id="path2936" />
    <path
       inkscape:connector-curvature="0"
       style="fill:none;stroke:#000000;stroke-width:1.0000006px;stroke-linecap:butt;stroke-linejoin:miter;stroke-opacity:1"
       d="M 511.78479,619.96441 384.44535,472.49054"
       id="path2938"
       sodipodi:nodetypes="cc" />
    <path
       inkscape:connector-curvature="0"
       style="fill:none;stroke:#000000;stroke-width:1.00000083px;stroke-linecap:butt;stroke-linejoin:miter;stroke-opacity:1"
       d="m 477.45763,593.30923 -90.07107,-56.1374"
       id="path2940" />
    <path
       inkscape:connector-curvature="0"
       style="fill:none;stroke:#3b6aee;stroke-width:5.30000353;stroke-linecap:butt;stroke-linejoin:miter;stroke-miterlimit:4;stroke-opacity:1;stroke-dasharray:none"
       d="M 796.89688,940.15614 C 796.89688,940.15614 809.21633,974.47822 854.51875,964.97399 889.83972,957.56382 877.1931,873.89591 877.1931,873.89591"
       id="path3827"
       sodipodi:nodetypes="csc" />
    <text
       xml:space="preserve"
       x="1072.1134"
       y="431.68237"
       id="text5607"
       transform="scale(0.79474392,1.2582669)"
       style="font-size:37.52189636px"><tspan
         sodipodi:role="line"
         id="tspan5609"
         x="1072.1134"
         y="431.68237"><tspan
           x="1072.1134"
           y="431.68237"
           id="tspan5611">Coracoid</tspan></tspan></text>
    <text
       xml:space="preserve"
       x="1139.2087"
       y="649.1955"
       id="text5613"
       transform="scale(0.76785289,1.3023328)"
       style="font-size:38.29973984px;font-style:normal;font-variant:normal;font-weight:normal;font-stretch:normal;text-align:start;line-height:125%;writing-mode:lr-tb;text-anchor:start;font-family:Bitstream Vera Sans"
       sodipodi:linespacing="125%"><tspan
         sodipodi:role="line"
         id="tspan5619"
         x="1139.2087"
         y="649.1955">Blade of scapula</tspan></text>
    <text
       xml:space="preserve"
       x="914.88684"
       y="870.88519"
       id="text5621"
       transform="scale(0.84537208,1.1829111)"
       style="font-size:38.88556671px;font-style:normal;font-variant:normal;font-weight:normal;font-stretch:normal;text-align:start;line-height:125%;writing-mode:lr-tb;text-anchor:start;font-family:Bitstream Vera Sans"
       sodipodi:linespacing="125%"><tspan
         sodipodi:role="line"
         id="tspan5669"
         x="914.88684"
         y="870.88519">Tertials (&quot;Humerals&quot;)</tspan></text>
    <text
       xml:space="preserve"
       x="680.16089"
       y="786.98462"
       id="text5625"
       transform="scale(0.7378701,1.3552521)"
       style="font-size:41.10903168px;font-style:normal;font-variant:normal;font-weight:normal;font-stretch:normal;text-align:start;line-height:125%;writing-mode:lr-tb;text-anchor:start;font-family:Bitstream Vera Sans"
       sodipodi:linespacing="125%"><tspan
         sodipodi:role="line"
         id="tspan5671"
         x="680.16089"
         y="786.98462">Secondaries</tspan></text>
    <text
       xml:space="preserve"
       x="-70.551155"
       y="809.20911"
       id="text5629"
       transform="scale(0.81112881,1.2328498)"
       style="font-size:38.29545593px;font-style:normal;font-variant:normal;font-weight:normal;font-stretch:normal;text-align:start;line-height:125%;writing-mode:lr-tb;text-anchor:start;font-family:Bitstream Vera Sans"
       sodipodi:linespacing="125%"><tspan
         sodipodi:role="line"
         id="tspan5673"
         x="-70.551155"
         y="809.20911">Primaries</tspan></text>
    <text
       xml:space="preserve"
       x="303.97476"
       y="405.72107"
       id="text5633"
       transform="scale(0.7684459,1.3013278)"
       style="font-size:35.48235703px;font-style:normal;font-variant:normal;font-weight:normal;font-stretch:normal;text-align:start;line-height:125%;writing-mode:lr-tb;text-anchor:start;font-family:Bitstream Vera Sans"
       sodipodi:linespacing="125%"><tspan
         sodipodi:role="line"
         id="tspan1962"
         x="303.97476"
         y="405.72107">Metacarpus</tspan></text>
    <text
       xml:space="preserve"
       x="345.64731"
       y="386.67596"
       id="text5637"
       transform="scale(0.82594276,1.2107376)"
       style="font-size:35.98588943px;font-style:normal;font-variant:normal;font-weight:normal;font-stretch:normal;text-align:start;line-height:125%;writing-mode:lr-tb;text-anchor:start;font-family:Bitstream Vera Sans"
       sodipodi:linespacing="125%"><tspan
         sodipodi:role="line"
         id="tspan5653"
         x="345.64731"
         y="386.67596">Ulnare</tspan></text>
    <text
       xml:space="preserve"
       x="573.46484"
       y="343.14951"
       id="text5641"
       transform="scale(0.79896511,1.2516191)"
       style="font-size:36.75093842px;font-style:normal;font-variant:normal;font-weight:normal;font-stretch:normal;text-align:start;line-height:125%;writing-mode:lr-tb;text-anchor:start;font-family:Bitstream Vera Sans"
       sodipodi:linespacing="125%"><tspan
         sodipodi:role="line"
         id="tspan5651"
         x="573.46484"
         y="343.14951">Radiale</tspan></text>
    <text
       xml:space="preserve"
       x="657.70978"
       y="390.50974"
       id="text5645"
       transform="scale(0.82321718,1.2147463)"
       style="font-size:36.86680984px;font-style:normal;font-variant:normal;font-weight:normal;font-stretch:normal;text-align:start;line-height:125%;writing-mode:lr-tb;text-anchor:start;font-family:Bitstream Vera Sans"
       sodipodi:linespacing="125%"><tspan
         sodipodi:role="line"
         id="tspan5649"
         x="657.70978"
         y="390.50974">Ulna</tspan></text>
    <text
       xml:space="preserve"
       x="940.85736"
       y="376.58911"
       id="text5657"
       transform="scale(0.75669297,1.32154)"
       style="font-size:37.0246582px;font-style:normal;font-variant:normal;font-weight:normal;font-stretch:normal;text-align:start;line-height:125%;writing-mode:lr-tb;text-anchor:start;font-family:Bitstream Vera Sans"
       sodipodi:linespacing="125%"><tspan
         sodipodi:role="line"
         id="tspan5667"
         x="940.85736"
         y="376.58911">Humerus</tspan></text>
    <text
       xml:space="preserve"
       x="714.55139"
       y="450.7775"
       id="text5661"
       transform="scale(0.83691397,1.194866)"
       style="font-size:36.46389771px;font-style:normal;font-variant:normal;font-weight:normal;font-stretch:normal;text-align:start;line-height:125%;writing-mode:lr-tb;text-anchor:start;font-family:Bitstream Vera Sans"
       sodipodi:linespacing="125%"><tspan
         sodipodi:role="line"
         id="tspan5665"
         x="714.55139"
         y="450.7775">Radius</tspan></text>
    <text
       xml:space="preserve"
       x="-114.78143"
       y="456.98819"
       id="text1958"
       transform="scale(0.7684459,1.3013278)"
       style="font-size:35.48236465px;font-style:normal;font-variant:normal;font-weight:normal;font-stretch:normal;text-align:start;line-height:125%;writing-mode:lr-tb;text-anchor:start;font-family:Bitstream Vera Sans"
       sodipodi:linespacing="125%"><tspan
         sodipodi:role="line"
         id="tspan1984"
         x="-114.78143"
         y="456.98819">Terminal phalanx</tspan></text>
    <text
       xml:space="preserve"
       x="4.2040195"
       y="421.27005"
       id="text1964"
       transform="scale(0.7684459,1.3013278)"
       style="font-size:35.48237228px;font-style:normal;font-variant:normal;font-weight:normal;font-stretch:normal;text-align:start;line-height:125%;writing-mode:lr-tb;text-anchor:start;font-family:Bitstream Vera Sans"
       sodipodi:linespacing="125%"><tspan
         sodipodi:role="line"
         id="tspan1968"
         x="4.2040195"
         y="421.27005">Basal phalanx</tspan></text>
    <path
       inkscape:connector-curvature="0"
       style="fill:none;stroke:#000000;stroke-width:1.0000006px;stroke-linecap:butt;stroke-linejoin:miter;stroke-opacity:1"
       d="M 382.10147,588.43882 196.13211,534.53699"
       id="path1970"
       sodipodi:nodetypes="cc" />
    <path
       inkscape:connector-curvature="0"
       style="fill:none;stroke:#000000;stroke-width:1.0000006px;stroke-linecap:butt;stroke-linejoin:miter;stroke-opacity:1"
       d="M 312.63534,592.08374 151.91923,579.38458"
       id="path1986"
       sodipodi:nodetypes="cc" />
  </g>
</svg>
